<?xml version="1.0" encoding="utf-8"?>
<svg viewBox="0 0 50 50" xmlns="http://www.w3.org/2000/svg">
  <path d="M 43.079 10.575 C 38.756 7.097 31.916 6.506 31.623 6.485 C 31.17 6.447 30.736 6.702 30.55 7.122 C 30.533 7.147 30.384 7.491 30.218 8.026 C 33.078 8.509 36.592 9.481 39.77 11.453 C 40.279 11.768 40.436 12.438 40.122 12.947 C 39.914 13.283 39.562 13.465 39.197 13.465 C 39.002 13.465 38.803 13.41 38.625 13.3 C 33.159 9.91 26.337 9.74 25.021 9.74 C 23.705 9.74 16.878 9.91 11.417 13.3 C 10.909 13.618 10.238 13.461 9.925 12.952 C 9.606 12.438 9.763 11.772 10.272 11.453 C 13.45 9.486 16.964 8.509 19.824 8.03 C 19.658 7.491 19.509 7.152 19.496 7.122 C 19.306 6.702 18.878 6.438 18.419 6.485 C 18.126 6.506 11.286 7.097 6.903 10.622 C 4.617 12.74 0.038 25.112 0.038 35.809 C 0.038 36 0.089 36.182 0.183 36.348 C 3.339 41.898 11.957 43.349 13.921 43.412 C 13.93 43.412 13.943 43.412 13.955 43.412 C 14.303 43.412 14.63 43.247 14.833 42.967 L 16.819 40.235 C 11.46 38.851 8.723 36.501 8.566 36.36 C 8.117 35.966 8.074 35.279 8.473 34.829 C 8.868 34.379 9.555 34.336 10.005 34.731 C 10.068 34.79 15.109 39.068 25.021 39.068 C 34.95 39.068 39.99 34.774 40.041 34.731 C 40.492 34.34 41.174 34.379 41.573 34.833 C 41.968 35.283 41.925 35.966 41.476 36.36 C 41.319 36.501 38.582 38.851 33.223 40.235 L 35.209 42.967 C 35.412 43.247 35.739 43.412 36.087 43.412 C 36.099 43.412 36.112 43.412 36.121 43.412 C 38.085 43.349 46.703 41.898 49.86 36.348 C 49.953 36.182 50.004 36 50.004 35.809 C 50.004 25.112 45.425 12.74 43.079 10.575 Z M 17.961 31.464 C 15.861 31.464 14.159 29.521 14.159 27.119 C 14.159 24.717 15.861 22.775 17.961 22.775 C 20.061 22.775 21.762 24.717 21.762 27.119 C 21.762 29.521 20.061 31.464 17.961 31.464 Z M 32.081 31.464 C 29.981 31.464 28.28 29.521 28.28 27.119 C 28.28 24.717 29.981 22.775 32.081 22.775 C 34.181 22.775 35.884 24.717 35.884 27.119 C 35.884 29.521 34.181 31.464 32.081 31.464 Z" style=""/>
</svg>