<?xml version="1.0" encoding="utf-8"?>
<svg viewBox="0 0 30 30" xmlns="http://www.w3.org/2000/svg">
  <path d="M 15.009 0.059 C 6.736 0.059 0.029 6.766 0.029 15.038 C 0.029 22.056 4.863 27.93 11.379 29.555 C 11.309 29.353 11.263 29.118 11.263 28.827 L 11.263 26.267 C 10.656 26.267 9.637 26.267 9.381 26.267 C 8.356 26.267 7.446 25.826 7.003 25.008 C 6.513 24.098 6.428 22.706 5.212 21.854 C 4.85 21.571 5.127 21.248 5.541 21.291 C 6.309 21.508 6.946 22.035 7.546 22.817 C 8.142 23.599 8.423 23.776 9.537 23.776 C 10.078 23.776 10.886 23.745 11.647 23.626 C 12.058 22.586 12.765 21.629 13.63 21.177 C 8.641 20.663 6.261 18.182 6.261 14.813 C 6.261 13.363 6.88 11.96 7.929 10.777 C 7.586 9.605 7.152 7.211 8.062 6.301 C 10.305 6.301 11.663 7.755 11.989 8.149 C 13.107 7.765 14.336 7.549 15.626 7.549 C 16.919 7.549 18.152 7.765 19.274 8.151 C 19.596 7.761 20.953 6.301 23.202 6.301 C 24.117 7.213 23.678 9.616 23.331 10.786 C 24.373 11.966 24.988 13.365 24.988 14.813 C 24.988 18.18 22.612 20.66 17.631 21.175 C 19.002 21.891 20.001 23.901 20.001 25.415 L 20.001 28.827 C 20.001 28.957 19.972 29.05 19.957 29.161 C 25.794 27.116 29.987 21.574 29.987 15.038 C 29.987 6.766 23.28 0.059 15.009 0.059 Z" style="" transform="matrix(1, 0, 0, 1, 0, 4.440892098500626e-16)"/>
</svg>