<?xml version="1.0" encoding="utf-8"?>
<svg viewBox="0 0 50 50" xmlns="http://www.w3.org/2000/svg">
  <path d="M 25.005 0.021 C 38.798 0.021 49.979 11.202 49.979 24.995 C 49.979 38.788 38.798 49.968 25.005 49.968 C 11.212 49.968 0.032 38.788 0.032 24.995 C 0.032 11.202 11.212 0.021 25.005 0.021 Z M 33.62 35.174 C 34.08 33.764 36.231 19.719 36.497 16.951 C 36.578 16.114 36.312 15.556 35.794 15.307 C 35.166 15.006 34.237 15.157 33.158 15.545 C 31.68 16.078 12.774 24.105 11.681 24.571 C 10.645 25.01 9.666 25.489 9.666 26.185 C 9.666 26.673 9.956 26.948 10.755 27.234 C 11.587 27.53 13.682 28.165 14.919 28.507 C 16.11 28.836 17.466 28.55 18.226 28.077 C 19.032 27.577 28.328 21.354 28.997 20.81 C 29.663 20.265 30.196 20.963 29.65 21.508 C 29.105 22.054 22.723 28.249 21.882 29.106 C 20.859 30.149 21.585 31.226 22.27 31.66 C 23.053 32.152 28.683 35.929 29.531 36.535 C 30.379 37.141 31.239 37.416 32.026 37.416 C 32.814 37.416 33.228 36.379 33.62 35.174 Z" style="fill: rgb(255, 255, 255);"/>
</svg>